_________________________  Visit us at _________________________
  
http://p2pdl.com  ____________________________  http://p2pdl.com


The Reef 2 High Tide 2012 BRRip 480p x264 - VYTO


Genre: Animation | Family | Musical
Plot: Trained in the skills of sea power, Pi the fish can fight a shark, sink a squid or batter any
random predator that ever threatens his friends and neighbors on the reef.  
Director: Mark A.Z. Dippé, Taedong Park
Stars: Drake Bell, Andy Dick, Fran Drescher.
Rated: PG for some mild menace and rude humor.


Info: 
http://www.imdb.com/title/tt1978567/

Trailer:


Format                         : MPEG-4
File size                      : 301 MiB
Duration                       : 1h 20mn
Overall bit rate mode          : Variable
Overall bit rate               : 524 Kbps
Source                         : 720p.BluRay.x264-iNVANDRAREN

Video
Format                         : AVC
Bit rate                       : 481 Kbps
Width                          : 720 pixels
Height                         : 384 pixels
Display aspect ratio           : 1.85:1
Frame rate mode                : Constant
Frame rate                     : 23.976 fps
Stream size                    : 276 MiB (92%)
Writing library                : x264 core 130 r2273

Audio
Format                         : AAC
Bit rate mode                  : Variable
Bit rate                       : 40.0 Kbps
Channel(s)                     : 2 channels
Channel positions              : Front: L R
Sampling rate                  : 48.0 KHz
Stream size                    : 23.0 MiB (8%)
Language                       : English

Subtitle                       : N/a
 
http://ultraimg.com/images/jJwt8.png 
http://ultraimg.com/images/YzI5V.png 
http://ultraimg.com/images/Mbfn2.png 
http://ultraimg.com/images/kUMTK.png 
http://ultraimg.com/images/eoigv.png 
http://ultraimg.com/images/GI06w.png 
http://ultraimg.com/images/qgQom.png


----------------------------------------------------------------------------------------------------


Encoded using revolutionary 10bit encoding, which enables us to provide you more crispier 
and sharper images at small sizes, just make sure you follow our instructions without a fault.
Recommend to you to use latest version of VLC player. Install K-Lite Codec Pack or shark007 codecs
in case of any kind of problem in playback (For non-VLC Media Player users). Alternatively, install
Core AVC codecs, the fastest decoder that there is coupled with Community Center Codec Pack and play
on Windows Media Player Classic. Check sample to be sure.
Enjoy!

Encoder Notes:Looking For Early Access To Anything You Can Provide DVDScr, R5, DVDR, BluRay, Direct
Audio, Music Releases and Seedboxes. We require dedicated servers, so as to do more 
and fast releases of movies.
If You Got anything to offer please contact us at "contact@p2pdl.com".

Face book Fan Page:   
http://www.fb.me/p2pdl